<svg width="416" height="307" viewBox="0 0 416 307" fill="none" xmlns="http://www.w3.org/2000/svg">
<path d="M186.207 0.901628C166.434 0.750102 147.174 6.20181 130.525 16.8703C113.876 27.5387 100.687 42.8165 92.563 60.8443C84.4389 78.8721 81.7301 98.8727 84.7661 118.412C87.8021 137.951 96.4521 156.187 109.663 170.9L135.158 148.007C126.384 138.237 120.64 126.127 118.624 113.151C116.608 100.176 118.407 86.8936 123.802 74.9217C129.197 62.9498 137.955 52.8042 149.011 45.7195C160.068 38.6348 173.076 34.801 186.207 34.9016V0.901628Z" fill="white"/>
<path d="M110.252 34.0958C129.22 12.9514 156.285 0.871277 184.69 0.871277H415.057L384.557 34.8713H109.557L110.252 34.0958Z" fill="white"/>
<path d="M109.557 135.871H304.557V170.871H109.557V135.871Z" fill="white"/>
<path d="M337.99 34.4016H384.953L323.424 102.402H276.207L337.99 34.4016Z" fill="white"/>
<path d="M153.207 102.402C153.207 83.6239 168.429 68.4016 187.207 68.4016H318.207V102.282L153.207 102.402Z" fill="white"/>
<path d="M228.85 306.044C248.623 306.195 267.883 300.744 284.532 290.075C301.18 279.407 314.37 264.129 322.494 246.101C330.618 228.073 333.327 208.073 330.291 188.533C327.255 168.994 318.604 150.758 305.393 136.046L279.899 158.938C288.672 168.709 294.417 180.818 296.433 193.794C298.449 206.77 296.65 220.052 291.255 232.024C285.86 243.996 277.101 254.141 266.045 261.226C254.989 268.311 241.981 272.144 228.85 272.044V306.044Z" fill="white"/>
<path d="M304.804 272.85C285.837 293.994 258.772 306.074 230.366 306.074H0L30.5 272.074H305.5L304.804 272.85Z" fill="white"/>
<path d="M305.5 171.074H110.5V136.074H305.5V171.074Z" fill="white"/>
<path d="M77.0661 272.544H30.1034L91.633 204.544H138.85L77.0661 272.544Z" fill="white"/>
<path d="M261.85 204.544C261.85 223.321 246.627 238.544 227.85 238.544H96.8496V204.664L261.85 204.544Z" fill="white"/>
</svg>
